<mxfile host="app.diagrams.net" agent="Mozilla/5.0 (Windows NT 10.0; Win64; x64) AppleWebKit/537.36 (KHTML, like Gecko) Chrome/130.0.0.0 Safari/537.36" version="24.8.3">
  <diagram name="Page-1" id="RfP6oPCVPbsQ4ybdp7_7">
    <mxGraphModel grid="1" page="1" gridSize="10" guides="1" tooltips="1" connect="1" arrows="1" fold="1" pageScale="1" pageWidth="850" pageHeight="1100" math="0" shadow="0">
      <root>
        <mxCell id="0" />
        <mxCell id="1" parent="0" />
        <mxCell id="zuF65hy2WG7ICfTjtAZ3-1" value="DELETE BOOK" style="rounded=1;whiteSpace=wrap;html=1;" vertex="1" parent="1">
          <mxGeometry x="90" y="210" width="120" height="60" as="geometry" />
        </mxCell>
        <mxCell id="zuF65hy2WG7ICfTjtAZ3-2" value="UPDATE BOOK" style="rounded=1;whiteSpace=wrap;html=1;" vertex="1" parent="1">
          <mxGeometry x="90" y="90" width="120" height="60" as="geometry" />
        </mxCell>
        <mxCell id="zuF65hy2WG7ICfTjtAZ3-3" value="GET BOOK BY ID" style="rounded=1;whiteSpace=wrap;html=1;" vertex="1" parent="1">
          <mxGeometry x="90" y="-30" width="120" height="60" as="geometry" />
        </mxCell>
        <mxCell id="zuF65hy2WG7ICfTjtAZ3-4" value="CREATE BOOK" style="rounded=1;whiteSpace=wrap;html=1;" vertex="1" parent="1">
          <mxGeometry x="90" y="-150" width="120" height="60" as="geometry" />
        </mxCell>
        <mxCell id="zuF65hy2WG7ICfTjtAZ3-5" value="GET BOOKS" style="rounded=1;whiteSpace=wrap;html=1;" vertex="1" parent="1">
          <mxGeometry x="90" y="-270" width="120" height="60" as="geometry" />
        </mxCell>
        <mxCell id="zuF65hy2WG7ICfTjtAZ3-22" value="" style="edgeStyle=orthogonalEdgeStyle;rounded=0;orthogonalLoop=1;jettySize=auto;html=1;" edge="1" parent="1" source="zuF65hy2WG7ICfTjtAZ3-6" target="zuF65hy2WG7ICfTjtAZ3-1">
          <mxGeometry relative="1" as="geometry" />
        </mxCell>
        <mxCell id="zuF65hy2WG7ICfTjtAZ3-6" value="/book/{bookId}" style="rounded=1;whiteSpace=wrap;html=1;" vertex="1" parent="1">
          <mxGeometry x="290" y="210" width="120" height="60" as="geometry" />
        </mxCell>
        <mxCell id="zuF65hy2WG7ICfTjtAZ3-23" value="" style="edgeStyle=orthogonalEdgeStyle;rounded=0;orthogonalLoop=1;jettySize=auto;html=1;" edge="1" parent="1" source="zuF65hy2WG7ICfTjtAZ3-7" target="zuF65hy2WG7ICfTjtAZ3-2">
          <mxGeometry relative="1" as="geometry" />
        </mxCell>
        <mxCell id="zuF65hy2WG7ICfTjtAZ3-7" value="/book/{bookId}" style="rounded=1;whiteSpace=wrap;html=1;" vertex="1" parent="1">
          <mxGeometry x="290" y="90" width="120" height="60" as="geometry" />
        </mxCell>
        <mxCell id="zuF65hy2WG7ICfTjtAZ3-24" value="" style="edgeStyle=orthogonalEdgeStyle;rounded=0;orthogonalLoop=1;jettySize=auto;html=1;" edge="1" parent="1" source="zuF65hy2WG7ICfTjtAZ3-8" target="zuF65hy2WG7ICfTjtAZ3-3">
          <mxGeometry relative="1" as="geometry" />
        </mxCell>
        <mxCell id="zuF65hy2WG7ICfTjtAZ3-8" value="/book/{bookId}" style="rounded=1;whiteSpace=wrap;html=1;" vertex="1" parent="1">
          <mxGeometry x="290" y="-30" width="120" height="60" as="geometry" />
        </mxCell>
        <mxCell id="zuF65hy2WG7ICfTjtAZ3-25" value="" style="edgeStyle=orthogonalEdgeStyle;rounded=0;orthogonalLoop=1;jettySize=auto;html=1;" edge="1" parent="1" source="zuF65hy2WG7ICfTjtAZ3-9" target="zuF65hy2WG7ICfTjtAZ3-4">
          <mxGeometry relative="1" as="geometry" />
        </mxCell>
        <mxCell id="zuF65hy2WG7ICfTjtAZ3-9" value="/book/" style="rounded=1;whiteSpace=wrap;html=1;" vertex="1" parent="1">
          <mxGeometry x="290" y="-150" width="120" height="60" as="geometry" />
        </mxCell>
        <mxCell id="zuF65hy2WG7ICfTjtAZ3-26" value="" style="edgeStyle=orthogonalEdgeStyle;rounded=0;orthogonalLoop=1;jettySize=auto;html=1;" edge="1" parent="1" source="zuF65hy2WG7ICfTjtAZ3-10" target="zuF65hy2WG7ICfTjtAZ3-5">
          <mxGeometry relative="1" as="geometry" />
        </mxCell>
        <mxCell id="zuF65hy2WG7ICfTjtAZ3-10" value="/book/" style="rounded=1;whiteSpace=wrap;html=1;" vertex="1" parent="1">
          <mxGeometry x="290" y="-270" width="120" height="60" as="geometry" />
        </mxCell>
        <mxCell id="zuF65hy2WG7ICfTjtAZ3-21" value="" style="edgeStyle=orthogonalEdgeStyle;rounded=0;orthogonalLoop=1;jettySize=auto;html=1;" edge="1" parent="1" source="zuF65hy2WG7ICfTjtAZ3-11" target="zuF65hy2WG7ICfTjtAZ3-6">
          <mxGeometry relative="1" as="geometry" />
        </mxCell>
        <mxCell id="zuF65hy2WG7ICfTjtAZ3-11" value="DELETE" style="rounded=1;whiteSpace=wrap;html=1;" vertex="1" parent="1">
          <mxGeometry x="490" y="210" width="120" height="60" as="geometry" />
        </mxCell>
        <mxCell id="zuF65hy2WG7ICfTjtAZ3-20" value="" style="edgeStyle=orthogonalEdgeStyle;rounded=0;orthogonalLoop=1;jettySize=auto;html=1;" edge="1" parent="1" source="zuF65hy2WG7ICfTjtAZ3-12" target="zuF65hy2WG7ICfTjtAZ3-7">
          <mxGeometry relative="1" as="geometry" />
        </mxCell>
        <mxCell id="zuF65hy2WG7ICfTjtAZ3-12" value="PUT" style="rounded=1;whiteSpace=wrap;html=1;" vertex="1" parent="1">
          <mxGeometry x="490" y="90" width="120" height="60" as="geometry" />
        </mxCell>
        <mxCell id="zuF65hy2WG7ICfTjtAZ3-19" value="" style="edgeStyle=orthogonalEdgeStyle;rounded=0;orthogonalLoop=1;jettySize=auto;html=1;" edge="1" parent="1" source="zuF65hy2WG7ICfTjtAZ3-13" target="zuF65hy2WG7ICfTjtAZ3-8">
          <mxGeometry relative="1" as="geometry" />
        </mxCell>
        <mxCell id="zuF65hy2WG7ICfTjtAZ3-13" value="GET" style="rounded=1;whiteSpace=wrap;html=1;" vertex="1" parent="1">
          <mxGeometry x="490" y="-30" width="120" height="60" as="geometry" />
        </mxCell>
        <mxCell id="zuF65hy2WG7ICfTjtAZ3-18" value="" style="edgeStyle=orthogonalEdgeStyle;rounded=0;orthogonalLoop=1;jettySize=auto;html=1;" edge="1" parent="1" source="zuF65hy2WG7ICfTjtAZ3-14" target="zuF65hy2WG7ICfTjtAZ3-9">
          <mxGeometry relative="1" as="geometry" />
        </mxCell>
        <mxCell id="zuF65hy2WG7ICfTjtAZ3-14" value="POST" style="rounded=1;whiteSpace=wrap;html=1;" vertex="1" parent="1">
          <mxGeometry x="490" y="-150" width="120" height="60" as="geometry" />
        </mxCell>
        <mxCell id="zuF65hy2WG7ICfTjtAZ3-17" value="" style="edgeStyle=orthogonalEdgeStyle;rounded=0;orthogonalLoop=1;jettySize=auto;html=1;" edge="1" parent="1" source="zuF65hy2WG7ICfTjtAZ3-15" target="zuF65hy2WG7ICfTjtAZ3-10">
          <mxGeometry relative="1" as="geometry" />
        </mxCell>
        <mxCell id="zuF65hy2WG7ICfTjtAZ3-15" value="GET" style="rounded=1;whiteSpace=wrap;html=1;" vertex="1" parent="1">
          <mxGeometry x="490" y="-270" width="120" height="60" as="geometry" />
        </mxCell>
        <mxCell id="zuF65hy2WG7ICfTjtAZ3-16" value="Controller Funcs" style="text;html=1;align=center;verticalAlign=middle;resizable=0;points=[];autosize=1;strokeColor=none;fillColor=none;fontSize=14;" vertex="1" parent="1">
          <mxGeometry x="85" y="-320" width="130" height="30" as="geometry" />
        </mxCell>
        <mxCell id="zuF65hy2WG7ICfTjtAZ3-27" value="&lt;b&gt;&lt;font style=&quot;font-size: 24px;&quot;&gt;ROUTES&lt;/font&gt;&lt;/b&gt;" style="text;html=1;align=center;verticalAlign=middle;resizable=0;points=[];autosize=1;strokeColor=none;fillColor=none;" vertex="1" parent="1">
          <mxGeometry x="290" y="-390" width="120" height="40" as="geometry" />
        </mxCell>
        <mxCell id="zuF65hy2WG7ICfTjtAZ3-28" value="&lt;font style=&quot;font-size: 18px;&quot;&gt;1. Database - MySQL&lt;/font&gt;&lt;div style=&quot;font-size: 18px;&quot;&gt;&lt;font style=&quot;font-size: 18px;&quot;&gt;2. GORM&lt;/font&gt;&lt;/div&gt;&lt;div style=&quot;font-size: 18px;&quot;&gt;&lt;font style=&quot;font-size: 18px;&quot;&gt;3. Json marshall, Unmarshall&lt;/font&gt;&lt;/div&gt;&lt;div style=&quot;font-size: 18px;&quot;&gt;&lt;font style=&quot;font-size: 18px;&quot;&gt;4. Project Structure&lt;/font&gt;&lt;/div&gt;&lt;div style=&quot;font-size: 18px;&quot;&gt;&lt;font style=&quot;font-size: 18px;&quot;&gt;5. Gorilla Mux&lt;/font&gt;&lt;/div&gt;" style="text;html=1;align=left;verticalAlign=middle;resizable=0;points=[];autosize=1;strokeColor=none;fillColor=none;" vertex="1" parent="1">
          <mxGeometry x="90" y="-1060" width="260" height="120" as="geometry" />
        </mxCell>
        <mxCell id="zuF65hy2WG7ICfTjtAZ3-29" value="MAIN.GO" style="rounded=1;whiteSpace=wrap;html=1;" vertex="1" parent="1">
          <mxGeometry x="10" y="-640" width="120" height="60" as="geometry" />
        </mxCell>
        <mxCell id="zuF65hy2WG7ICfTjtAZ3-31" value="" style="edgeStyle=orthogonalEdgeStyle;rounded=0;orthogonalLoop=1;jettySize=auto;html=1;" edge="1" parent="1">
          <mxGeometry relative="1" as="geometry">
            <mxPoint x="70" y="-690" as="sourcePoint" />
            <mxPoint x="70" y="-640" as="targetPoint" />
          </mxGeometry>
        </mxCell>
        <mxCell id="zuF65hy2WG7ICfTjtAZ3-30" value="&lt;b&gt;&lt;font style=&quot;font-size: 21px;&quot;&gt;CMD&lt;/font&gt;&lt;/b&gt;" style="rounded=1;whiteSpace=wrap;html=1;" vertex="1" parent="1">
          <mxGeometry x="10" y="-750" width="120" height="60" as="geometry" />
        </mxCell>
        <mxCell id="zuF65hy2WG7ICfTjtAZ3-32" value="APP.GO" style="rounded=1;whiteSpace=wrap;html=1;" vertex="1" parent="1">
          <mxGeometry x="170" y="-530" width="120" height="60" as="geometry" />
        </mxCell>
        <mxCell id="zuF65hy2WG7ICfTjtAZ3-33" value="" style="edgeStyle=orthogonalEdgeStyle;rounded=0;orthogonalLoop=1;jettySize=auto;html=1;" edge="1" parent="1" source="zuF65hy2WG7ICfTjtAZ3-34" target="zuF65hy2WG7ICfTjtAZ3-32">
          <mxGeometry relative="1" as="geometry" />
        </mxCell>
        <mxCell id="zuF65hy2WG7ICfTjtAZ3-34" value="config" style="rounded=1;whiteSpace=wrap;html=1;" vertex="1" parent="1">
          <mxGeometry x="170" y="-640" width="120" height="60" as="geometry" />
        </mxCell>
        <mxCell id="zuF65hy2WG7ICfTjtAZ3-35" value="BOOK CONTROLLER" style="rounded=1;whiteSpace=wrap;html=1;" vertex="1" parent="1">
          <mxGeometry x="335" y="-530" width="120" height="60" as="geometry" />
        </mxCell>
        <mxCell id="zuF65hy2WG7ICfTjtAZ3-36" value="" style="edgeStyle=orthogonalEdgeStyle;rounded=0;orthogonalLoop=1;jettySize=auto;html=1;" edge="1" parent="1" source="zuF65hy2WG7ICfTjtAZ3-37" target="zuF65hy2WG7ICfTjtAZ3-35">
          <mxGeometry relative="1" as="geometry" />
        </mxCell>
        <mxCell id="zuF65hy2WG7ICfTjtAZ3-37" value="controllers" style="rounded=1;whiteSpace=wrap;html=1;" vertex="1" parent="1">
          <mxGeometry x="335" y="-640" width="120" height="60" as="geometry" />
        </mxCell>
        <mxCell id="zuF65hy2WG7ICfTjtAZ3-38" value="BOOK.GO" style="rounded=1;whiteSpace=wrap;html=1;" vertex="1" parent="1">
          <mxGeometry x="490" y="-530" width="120" height="60" as="geometry" />
        </mxCell>
        <mxCell id="zuF65hy2WG7ICfTjtAZ3-39" value="" style="edgeStyle=orthogonalEdgeStyle;rounded=0;orthogonalLoop=1;jettySize=auto;html=1;" edge="1" parent="1" source="zuF65hy2WG7ICfTjtAZ3-40" target="zuF65hy2WG7ICfTjtAZ3-38">
          <mxGeometry relative="1" as="geometry" />
        </mxCell>
        <mxCell id="zuF65hy2WG7ICfTjtAZ3-40" value="models" style="rounded=1;whiteSpace=wrap;html=1;" vertex="1" parent="1">
          <mxGeometry x="490" y="-640" width="120" height="60" as="geometry" />
        </mxCell>
        <mxCell id="zuF65hy2WG7ICfTjtAZ3-41" value="BOOKSTORE ROUTES" style="rounded=1;whiteSpace=wrap;html=1;" vertex="1" parent="1">
          <mxGeometry x="640" y="-530" width="120" height="60" as="geometry" />
        </mxCell>
        <mxCell id="zuF65hy2WG7ICfTjtAZ3-42" value="" style="edgeStyle=orthogonalEdgeStyle;rounded=0;orthogonalLoop=1;jettySize=auto;html=1;" edge="1" parent="1" source="zuF65hy2WG7ICfTjtAZ3-43" target="zuF65hy2WG7ICfTjtAZ3-41">
          <mxGeometry relative="1" as="geometry" />
        </mxCell>
        <mxCell id="zuF65hy2WG7ICfTjtAZ3-43" value="routes" style="rounded=1;whiteSpace=wrap;html=1;" vertex="1" parent="1">
          <mxGeometry x="640" y="-640" width="120" height="60" as="geometry" />
        </mxCell>
        <mxCell id="zuF65hy2WG7ICfTjtAZ3-44" value="UTILS.GO" style="rounded=1;whiteSpace=wrap;html=1;" vertex="1" parent="1">
          <mxGeometry x="800" y="-530" width="120" height="60" as="geometry" />
        </mxCell>
        <mxCell id="zuF65hy2WG7ICfTjtAZ3-45" value="" style="edgeStyle=orthogonalEdgeStyle;rounded=0;orthogonalLoop=1;jettySize=auto;html=1;" edge="1" parent="1" source="zuF65hy2WG7ICfTjtAZ3-46" target="zuF65hy2WG7ICfTjtAZ3-44">
          <mxGeometry relative="1" as="geometry" />
        </mxCell>
        <mxCell id="zuF65hy2WG7ICfTjtAZ3-46" value="utils" style="rounded=1;whiteSpace=wrap;html=1;" vertex="1" parent="1">
          <mxGeometry x="800" y="-640" width="120" height="60" as="geometry" />
        </mxCell>
        <mxCell id="zuF65hy2WG7ICfTjtAZ3-49" style="edgeStyle=orthogonalEdgeStyle;rounded=0;orthogonalLoop=1;jettySize=auto;html=1;exitX=0;exitY=0.5;exitDx=0;exitDy=0;entryX=0.5;entryY=0;entryDx=0;entryDy=0;" edge="1" parent="1" source="zuF65hy2WG7ICfTjtAZ3-47" target="zuF65hy2WG7ICfTjtAZ3-34">
          <mxGeometry relative="1" as="geometry" />
        </mxCell>
        <mxCell id="zuF65hy2WG7ICfTjtAZ3-50" value="" style="edgeStyle=orthogonalEdgeStyle;rounded=0;orthogonalLoop=1;jettySize=auto;html=1;" edge="1" parent="1" source="zuF65hy2WG7ICfTjtAZ3-47" target="zuF65hy2WG7ICfTjtAZ3-40">
          <mxGeometry relative="1" as="geometry" />
        </mxCell>
        <mxCell id="zuF65hy2WG7ICfTjtAZ3-51" style="edgeStyle=orthogonalEdgeStyle;rounded=0;orthogonalLoop=1;jettySize=auto;html=1;entryX=0.5;entryY=0;entryDx=0;entryDy=0;" edge="1" parent="1" source="zuF65hy2WG7ICfTjtAZ3-47" target="zuF65hy2WG7ICfTjtAZ3-46">
          <mxGeometry relative="1" as="geometry" />
        </mxCell>
        <mxCell id="zuF65hy2WG7ICfTjtAZ3-52" style="edgeStyle=orthogonalEdgeStyle;rounded=0;orthogonalLoop=1;jettySize=auto;html=1;entryX=0.5;entryY=0;entryDx=0;entryDy=0;" edge="1" parent="1" source="zuF65hy2WG7ICfTjtAZ3-47" target="zuF65hy2WG7ICfTjtAZ3-43">
          <mxGeometry relative="1" as="geometry" />
        </mxCell>
        <mxCell id="zuF65hy2WG7ICfTjtAZ3-53" style="edgeStyle=orthogonalEdgeStyle;rounded=0;orthogonalLoop=1;jettySize=auto;html=1;entryX=0.5;entryY=0;entryDx=0;entryDy=0;" edge="1" parent="1" source="zuF65hy2WG7ICfTjtAZ3-47" target="zuF65hy2WG7ICfTjtAZ3-37">
          <mxGeometry relative="1" as="geometry" />
        </mxCell>
        <mxCell id="zuF65hy2WG7ICfTjtAZ3-47" value="&lt;font size=&quot;1&quot; style=&quot;&quot;&gt;&lt;span style=&quot;font-size: 19px;&quot;&gt;PKG&lt;/span&gt;&lt;/font&gt;" style="rounded=1;whiteSpace=wrap;html=1;" vertex="1" parent="1">
          <mxGeometry x="490" y="-770" width="120" height="60" as="geometry" />
        </mxCell>
        <mxCell id="zuF65hy2WG7ICfTjtAZ3-48" value="&lt;b&gt;&lt;font style=&quot;font-size: 26px;&quot;&gt;PROJECT STRUCTURE&lt;/font&gt;&lt;/b&gt;" style="text;html=1;align=center;verticalAlign=middle;resizable=0;points=[];autosize=1;strokeColor=none;fillColor=none;" vertex="1" parent="1">
          <mxGeometry x="330" y="-860" width="310" height="40" as="geometry" />
        </mxCell>
      </root>
    </mxGraphModel>
  </diagram>
</mxfile>
